#!OML:ASF F:\VICON\USERDATA\INSTALL\rory3\rory3.ASF
:FULLY-SPECIFIED
:DEGREES
2675
root -12.8467 18.0874 2.56139 716.979 -15.277 -1083.14
lowerback 11.406 0.769059 0.0615643
upperback 0.744916 1.11781 1.60482
thorax -5.65133 0.564801 1.46779
lowerneck -21.8673 -4.78564 -11.658
upperneck 33.261 -5.33789 7.35437
head 16.087 -2.71907 4.12546
rclavicle -4.78372e-014 5.76476e-015
rhumerus -34.2678 -12.2766 -77.8857
rradius 29.1841
rwrist 5.00494
rhand -17.2425 7.28531
rfingers 7.12502
rthumb 9.00131 -22.5027
lclavicle -4.78372e-014 5.76476e-015
lhumerus -35.0967 6.96774 82.5884
lradius 25.3482
lwrist -12.5459
lhand -16.8721 25.5179
lfingers 7.12502
lthumb 9.35876 55.2902
rfemur -4.62993 -0.896797 24.3004
rtibia 20.317
rfoot -8.02454 0.379313
rtoes -0.520512
lfemur -13.8468 -1.60332 -18.4193
ltibia 65.2984
lfoot 8.00569 -5.90635
ltoes -1.02608
2676
root -12.8971 18.0917 2.64882 716.95 -15.0778 -1083.2
lowerback 11.4975 0.839554 0.152305
upperback 0.791584 1.22331 1.60794
thorax -5.65428 0.614152 1.402
lowerneck -21.8425 -4.79163 -11.6075
upperneck 33.2623 -5.34357 7.29171
head 16.0782 -2.72298 4.08783
rclavicle -6.85031e-015 -2.31087e-014
rhumerus -33.8058 -12.1166 -77.9076
rradius 29.263
rwrist 4.89527
rhand -17.2066 7.42059
rfingers 7.12502
rthumb 9.03596 -22.3659
lclavicle -6.85031e-015 -2.31087e-014
lhumerus -35.2928 7.24708 82.5259
lradius 25.5569
lwrist -12.6627
lhand -16.7032 25.5744
lfingers 7.12502
lthumb 9.52173 55.3393
rfemur -4.25886 -0.921534 24.474
rtibia 20.3005
rfoot -8.3722 0.0989416
rtoes -0.190843
lfemur -14.6579 -1.36181 -18.3733
ltibia 65.2396
lfoot 6.73982 -6.02111
ltoes -2.07614
2677
root -12.9465 18.086 2.74505 716.919 -14.9548 -1083.21
lowerback 11.4702 0.966509 0.252343
upperback 0.841016 1.40136 1.56865
thorax -5.58785 0.698514 1.27603
lowerneck -21.662 -4.81732 -11.5813
upperneck 33.1298 -5.40099 7.27982
head 15.9771 -2.74395 4.06123
rclavicle 1.64743e-014 1.2275e-014
rhumerus -33.3971 -11.9833 -77.9396
rradius 29.3602
rwrist 4.60345
rhand -17.6636 7.61848
rfingers 7.12502
rthumb 8.59503 -22.1866
lclavicle 1.64743e-014 1.2275e-014
lhumerus -35.4061 7.2466 82.568
lradius 25.6456
lwrist -12.4259
lhand -16.2944 25.9029
lfingers 7.12502
lthumb 9.91609 55.6493
rfemur -3.93799 -0.84664 24.5693
rtibia 20.5405
rfoot -8.89258 -0.201262
rtoes -0.182807
lfemur -15.3785 -1.09599 -18.4202
ltibia 64.9775
lfoot 5.33369 -6.21331
ltoes -2.76044
2678
root -12.994 18.0654 2.83438 716.974 -14.735 -1083.21
lowerback 11.4284 1.05573 0.335362
upperback 0.819783 1.52851 1.53177
thorax -5.5864 0.758733 1.17048
lowerneck -21.5274 -4.84316 -11.7152
upperneck 33.1636 -5.48739 7.50051
head 15.988 -2.7687 4.16751
rclavicle 7.28204e-015 -4.57205e-015
rhumerus -33.0326 -11.9092 -77.9535
rradius 29.4288
rwrist 4.4588
rhand -18.0411 7.4578
rfingers 7.12502
rthumb 8.23071 -22.3619
lclavicle 7.28204e-015 -4.57205e-015
lhumerus -35.6424 6.98722 82.7228
lradius 25.8563
lwrist -11.5967
lhand -16.227 26.4111
lfingers 7.12502
lthumb 9.98117 56.1545
rfemur -3.7223 -0.741319 24.6956
rtibia 20.8621
rfoot -9.43518 -0.734098
rtoes -1.22338
lfemur -16.2455 -0.904582 -18.4514
ltibia 64.5731
lfoot 4.03341 -6.63827
ltoes -3.60274
2679
root -13.0401 18.0466 2.91749 716.988 -14.4794 -1083.23
lowerback 11.4835 1.1418 0.439398
upperback 0.846013 1.65349 1.48217
thorax -5.58754 0.816936 1.03896
lowerneck -21.5505 -4.86968 -11.8085
upperneck 33.2759 -5.58014 7.73496
head 16.0747 -2.78773 4.27522
rclavicle -1.15909e-014 -2.23633e-015
rhumerus -32.6282 -11.76 -78.0879
rradius 29.5457
rwrist 3.95438
rhand -18.4419 7.09583
rfingers 7.12502
rthumb 7.84387 -22.7387
lclavicle -1.15909e-014 -2.23633e-015
lhumerus -35.7351 6.81923 82.8289
lradius 26.0102
lwrist -10.9724
lhand -17.4803 25.7817
lfingers 7.12502
lthumb 8.77191 55.5794
rfemur -3.49859 -0.751247 24.8226
rtibia 21.1643
rfoot -9.99781 -1.14357
rtoes -2.10362
lfemur -17.0408 -0.790994 -18.4503
ltibia 64.0015
lfoot 2.76225 -7.00509
ltoes -4.17197
